<svg xmlns="http://www.w3.org/2000/svg" viewBox="20.48 5 63.25999999999999 89.94">
  <path d="M 63.3 30.22 l -0.2 -0.09 A 22.53 22.53 0 0 1 50 5 A 33.77 33.77 0 0 0 27.63 33.9 q -0.09 1.09 -0.12 2.19 c 0 0.24 0 0.48 0 0.73 a 33.59 33.59 0 0 0 5.66 18.71 A 11.23 11.23 0 0 1 20.48 44.88 A 33.76 33.76 0 0 0 47.94 94.94 a 15.48 15.48 0 0 1 -9.19 -13.81 c 0 -0.11 0 -0.22 0 -0.33 a 15.46 15.46 0 0 1 9.37 -14.22 l 0.08 0 h 0 a 12.65 12.65 0 0 0 7.64 -11.61 A 15.49 15.49 0 0 1 64 67.24 c 0 0.34 0 0.68 0.05 1 c 0 0.11 0 0.22 0 0.33 a 15.39 15.39 0 0 1 -2.59 8.58 L 60.21 79 l 2.25 0.29 a 7.12 7.12 0 0 0 0.9 0.06 a 7 7 0 0 0 5.71 -2.92 a 15.45 15.45 0 0 1 -3.34 14.65 A 33.75 33.75 0 0 0 83.74 62 c 0 -0.24 0 -0.48 0 -0.73 A 33.76 33.76 0 0 0 63.3 30.22 Z" fill="#000000"/>
</svg>
