<?xml version="1.0" encoding="utf-8"?>
<!-- Generator: Adobe Illustrator 25.4.1, SVG Export Plug-In . SVG Version: 6.00 Build 0)  -->
<svg version="1.1" id="Layer_1" xmlns="http://www.w3.org/2000/svg" xmlns:xlink="http://www.w3.org/1999/xlink" x="0px" y="0px"
	 viewBox="0 0 1433.8 355.6" style="enable-background:new 0 0 1433.8 355.6;" xml:space="preserve">
<style type="text/css">
	.st0{display:none;}
	.st1{fill:#FF8009;}
</style>
<g id="Layer_1_00000112592665357472473680000016779275980755825049_" class="st0">
</g>
<g id="Layer_2_00000093171050362037493040000013450926808122779284_">
	<path class="st1" d="M137.5,149.1"/>
	<path class="st1" d="M299.1,55.3c0,0-5-1.7-7.9,2.1c-2.9,3.7-24.3,42.2-44,54c0.9-4.2,3.7-11.2,4.6-15.4c0.4-2.9,0.8-15-2.5-22
		c-1.7-2.9-3.7-8.7-10.8-14.5c0,0,2.1,24.1-10.4,32c-2.5-21.2-12-36.6-19.1-44.9c-7.5-9.6-27-22.4-35.7-26.6
		c-5-1.7-32.8-15.8-37.8-19.9c0,0,15.4,17.9,18.3,37.8c0.8,8.3,3.3,18.3,7.9,29.5c0,0,7.1,15.4,13.7,23.3
		c-8.7-7.1-22-13.7-27.4-15.8c-10-3.7-30.3-9.1-52.3-9.6C75.6,65.2,9.1,64,9.1,64s25.3,8.3,37.4,18.3c0,0,15.8,10.4,31.6,27.8
		c4.6,5,30.7,33.2,77.3,40.3c0,0-34.1-2.5-61.9,16.2c-25.3,15.4-25.3,28.7-49.4,49c-9.6,7.9-20.8,19.1-44,25.8
		c31.2,0.8,56.1,2.9,64,3.3s32.4,2.1,57.7-4.2c26.2-6.2,51.5-21.6,64.4-37.4c-4.6,8.7-10.8,22.8-12,43.2
		c-1.2,23.3,2.5,33.2,2.1,50.3c0,13.7,3.3,21.6-9.1,59c10.4-9.1,45.7-45.3,54-59c0,0,19.9-27.4,23.7-52.8c0,0,2.5-23.3-0.8-37.4
		c5,14.1,15.4,29.1,24.9,37c5.4,5,29.1,23.7,33.2,33.2c-3.9-23.3-5.8-67.3-6.2-73.9c-0.8-16.6-9.1-46.5-33.7-61.9
		c0,0,8.7-7.9,29.1-2.1c0,0-15.4-22.4-40.3-19.5c32.4-20.8,51.1-53.6,52.3-56.1c0,0,1.7-2.5-0.4-4.6S299.1,55.3,299.1,55.3z"/>
</g>
<g>
	<path class="st1" d="M533.3,241.6h-35v-87.5c0-2.4-0.5-4.7-1.4-6.8c-0.9-2.1-2.2-4-3.8-5.7c-1.6-1.6-3.5-2.9-5.7-3.8
		c-2.1-0.9-4.4-1.4-6.8-1.4c-2.4,0-4.7,0.5-6.8,1.4c-2.1,0.9-3.9,2.2-5.5,3.8c-1.6,1.6-2.8,3.5-3.7,5.7c-0.9,2.1-1.4,4.4-1.4,6.8
		v87.5h-35.1v-87.5c0-2.4-0.5-4.7-1.4-6.8c-0.9-2.1-2.2-4-3.8-5.7c-1.6-1.6-3.5-2.9-5.7-3.8c-2.1-0.9-4.4-1.4-6.8-1.4
		c-2.4,0-4.7,0.5-6.8,1.4c-2.1,0.9-3.9,2.2-5.5,3.8c-1.6,1.6-2.8,3.5-3.7,5.7c-0.9,2.1-1.4,4.4-1.4,6.8v87.5h-35.1V103.8h8.5
		l9.5,10.5c4.9-4.1,10.3-7.3,16.1-9.6c5.9-2.3,12-3.4,18.3-3.4c6.4,0,12.7,1.2,18.8,3.6c6.1,2.4,11.5,6.6,16.1,12.5
		c2.1-2.9,4.6-5.4,7.3-7.5c2.7-2.1,5.6-3.7,8.7-5c3-1.3,6.2-2.2,9.5-2.8c3.3-0.6,6.5-0.8,9.6-0.8c7.3,0,14.1,1.4,20.5,4.1
		c6.4,2.7,12,6.5,16.7,11.3s8.5,10.4,11.3,16.8c2.7,6.4,4.1,13.3,4.1,20.6V241.6z"/>
	<path class="st1" d="M613.7,207.9c1.4,0.4,2.7,0.7,4.1,0.8c1.4,0.1,2.7,0.2,4.1,0.2c3.4,0,6.7-0.5,9.9-1.4c3.2-0.9,6.2-2.3,8.9-4.1
		c2.8-1.8,5.3-3.9,7.5-6.4c2.2-2.5,4-5.3,5.3-8.4l25.7,25.9c-3.3,4.6-7,8.8-11.3,12.5c-4.2,3.7-8.8,6.8-13.8,9.4
		c-4.9,2.6-10.1,4.5-15.6,5.9c-5.4,1.3-11,2-16.8,2c-9.7,0-18.8-1.8-27.3-5.4c-8.5-3.6-16-8.6-22.4-15.1c-6.4-6.4-11.4-14.1-15.1-23
		c-3.7-8.9-5.5-18.6-5.5-29.3c0-10.9,1.8-20.8,5.5-29.8c3.7-9,8.7-16.7,15.1-23c6.4-6.3,13.8-11.3,22.4-14.8
		c8.5-3.5,17.6-5.3,27.3-5.3c5.7,0,11.4,0.7,16.9,2.1c5.5,1.4,10.7,3.3,15.6,5.9s9.5,5.7,13.8,9.5c4.3,3.7,8.1,7.9,11.3,12.5
		L613.7,207.9z M631.7,135.5c-1.6-0.6-3.2-1-4.8-1.2c-1.6-0.2-3.2-0.3-5-0.3c-4.8,0-9.3,0.9-13.6,2.6c-4.2,1.8-7.9,4.3-11.1,7.5
		c-3.1,3.3-5.6,7.2-7.4,11.8c-1.8,4.6-2.7,9.8-2.7,15.5c0,1.3,0.1,2.7,0.2,4.4c0.1,1.6,0.3,3.3,0.6,5c0.3,1.7,0.7,3.3,1.1,4.8
		c0.4,1.5,1,2.9,1.7,4.1L631.7,135.5z"/>
	<path class="st1" d="M772.9,241.6h-80.3v-35h80.3c2.4,0,4.5-0.9,6.2-2.6c1.7-1.7,2.6-3.8,2.6-6.2c0-2.5-0.9-4.1-2.6-4.9
		c-1.7-0.8-3.8-1.2-6.2-1.2h-36.5c-6.1,0-11.8-1.2-17.1-3.5c-5.3-2.3-10-5.5-13.9-9.5c-3.9-4-7.1-8.6-9.3-14
		c-2.3-5.3-3.4-11-3.4-17.1c0-6.1,1.1-11.8,3.4-17.1c2.3-5.3,5.4-9.9,9.3-13.9c3.9-3.9,8.6-7.1,13.9-9.3c5.3-2.3,11-3.4,17.1-3.4
		h71.1v35h-71.1c-2.4,0-4.5,0.9-6.2,2.6c-1.7,1.7-2.6,3.8-2.6,6.2c0,2.5,0.9,4.6,2.6,6.4c1.7,1.8,3.8,2.6,6.2,2.6h36.5
		c6,0,11.7,1,17,3c5.3,2,9.9,4.8,13.9,8.4c3.9,3.6,7.1,7.9,9.4,13c2.3,5.1,3.5,10.6,3.5,16.6c0,6.1-1.2,11.8-3.5,17
		s-5.4,9.9-9.4,13.9c-3.9,4-8.6,7.1-13.9,9.4C784.5,240.5,778.9,241.6,772.9,241.6z"/>
	<path class="st1" d="M936.5,225.5c-2.8,2.6-5.9,5-9.1,7.3c-3.2,2.3-6.6,4.2-10.1,5.9c-3.5,1.7-7.1,3-10.9,4
		c-3.7,1-7.5,1.5-11.4,1.5c-8.5,0-16.5-1.5-23.9-4.5c-7.5-3-14-7.3-19.6-12.8c-5.6-5.5-10-12.3-13.3-20.2
		c-3.2-7.9-4.8-16.8-4.8-26.7v-76.2h35V180c0,4.6,0.7,8.8,2.1,12.4c1.4,3.6,3.3,6.7,5.7,9.2c2.4,2.5,5.2,4.4,8.4,5.7
		s6.7,1.9,10.4,1.9c3.6,0,7-0.8,10.2-2.5c3.2-1.7,6-3.9,8.4-6.6c2.4-2.7,4.3-5.9,5.7-9.3c1.4-3.5,2.1-7.1,2.1-10.7v-76.2h35.1v137.8
		h-8.5L936.5,225.5z"/>
	<path class="st1" d="M1026.5,228.5c0,3.1-0.6,6-1.7,8.7c-1.1,2.7-2.7,5-4.6,7c-2,2-4.3,3.5-6.9,4.7c-2.7,1.2-5.5,1.7-8.6,1.7
		c-3,0-5.9-0.6-8.6-1.7c-2.7-1.2-5.1-2.7-7.1-4.7c-2-2-3.6-4.3-4.8-7c-1.2-2.7-1.7-5.6-1.7-8.7c0-3,0.6-5.8,1.7-8.5
		c1.2-2.7,2.7-5,4.8-6.9c2-2,4.4-3.5,7.1-4.7c2.7-1.2,5.6-1.7,8.6-1.7c3.1,0,6,0.6,8.6,1.7c2.7,1.2,5,2.7,6.9,4.7
		c2,2,3.5,4.3,4.6,6.9C1026,222.7,1026.5,225.5,1026.5,228.5z"/>
	<path class="st1" d="M1088,241.6h-35.4V49h35.4V241.6z"/>
	<path class="st1" d="M1156.2,66.4c0,3.3-0.6,6.3-1.9,9.1c-1.2,2.8-2.9,5.3-5.1,7.4c-2.1,2.1-4.7,3.8-7.5,5
		c-2.9,1.2-5.9,1.9-9.2,1.9c-3.3,0-6.3-0.6-9.2-1.9c-2.9-1.2-5.4-2.9-7.5-5c-2.1-2.1-3.8-4.6-5-7.4c-1.2-2.8-1.9-5.9-1.9-9.1
		c0-3.2,0.6-6.2,1.9-9.1c1.2-2.9,2.9-5.4,5-7.5c2.1-2.1,4.6-3.8,7.5-5c2.9-1.2,5.9-1.9,9.2-1.9c3.3,0,6.3,0.6,9.2,1.9
		c2.9,1.2,5.4,2.9,7.5,5c2.1,2.1,3.8,4.6,5.1,7.5C1155.6,60.2,1156.2,63.2,1156.2,66.4z M1150.2,241.6h-35.4V103.8h35.4V241.6z"/>
	<path class="st1" d="M1216,241.6l-52.5-137.8h40l30.1,85.9l30-85.9h40.1l-52.5,137.8H1216z"/>
	<path class="st1" d="M1368,207.9c1.4,0.4,2.7,0.7,4.1,0.8c1.4,0.1,2.7,0.2,4.1,0.2c3.4,0,6.7-0.5,9.9-1.4c3.2-0.9,6.2-2.3,8.9-4.1
		c2.8-1.8,5.3-3.9,7.5-6.4c2.2-2.5,4-5.3,5.3-8.4l25.7,25.9c-3.3,4.6-7,8.8-11.3,12.5c-4.2,3.7-8.8,6.8-13.8,9.4
		c-4.9,2.6-10.1,4.5-15.6,5.9c-5.4,1.3-11,2-16.8,2c-9.7,0-18.8-1.8-27.3-5.4c-8.5-3.6-16-8.6-22.4-15.1c-6.4-6.4-11.4-14.1-15.1-23
		c-3.7-8.9-5.5-18.6-5.5-29.3c0-10.9,1.8-20.8,5.5-29.8c3.7-9,8.7-16.7,15.1-23c6.4-6.3,13.8-11.3,22.4-14.8
		c8.5-3.5,17.6-5.3,27.3-5.3c5.7,0,11.4,0.7,16.9,2.1c5.5,1.4,10.7,3.3,15.6,5.9c4.9,2.6,9.5,5.7,13.8,9.5
		c4.3,3.7,8.1,7.9,11.3,12.5L1368,207.9z M1386,135.5c-1.6-0.6-3.2-1-4.8-1.2c-1.6-0.2-3.2-0.3-5-0.3c-4.8,0-9.3,0.9-13.6,2.6
		c-4.2,1.8-7.9,4.3-11.1,7.5c-3.1,3.3-5.6,7.2-7.4,11.8c-1.8,4.6-2.7,9.8-2.7,15.5c0,1.3,0.1,2.7,0.2,4.4c0.1,1.6,0.3,3.3,0.6,5
		c0.3,1.7,0.7,3.3,1.1,4.8c0.4,1.5,1,2.9,1.7,4.1L1386,135.5z"/>
</g>
</svg>
