<?xml version="1.0" encoding="UTF-8"?>
<svg id="Layer_1" data-name="Layer 1" xmlns="http://www.w3.org/2000/svg" viewBox="0 0 29 24">
  <defs>
    <style>
      .cls-1 {
        stroke-width: 0px;
      }
    </style>
  </defs>
  <rect class="cls-1" x="17" y="23" width="1" height="1"/>
  <rect class="cls-1" x="16" y="23" width="1" height="1"/>
  <rect class="cls-1" x="15" y="23" width="1" height="1"/>
  <rect class="cls-1" x="14" y="23" width="1" height="1"/>
  <rect class="cls-1" x="13" y="23" width="1" height="1"/>
  <rect class="cls-1" x="2" y="23" width="1" height="1"/>
  <rect class="cls-1" x="1" y="23" width="1" height="1"/>
  <rect class="cls-1" x="19" y="22" width="1" height="1"/>
  <rect class="cls-1" x="18" y="22" width="1" height="1"/>
  <rect class="cls-1" x="17" y="22" width="1" height="1"/>
  <rect class="cls-1" x="16" y="22" width="1" height="1"/>
  <rect class="cls-1" x="15" y="22" width="1" height="1"/>
  <rect class="cls-1" x="14" y="22" width="1" height="1"/>
  <rect class="cls-1" x="13" y="22" width="1" height="1"/>
  <rect class="cls-1" x="12" y="22" width="1" height="1"/>
  <rect class="cls-1" x="11" y="22" width="1" height="1"/>
  <rect class="cls-1" x="10" y="22" width="1" height="1"/>
  <rect class="cls-1" x="3" y="22" width="1" height="1"/>
  <rect class="cls-1" x="2" y="22" width="1" height="1"/>
  <rect class="cls-1" x="1" y="22" width="1" height="1"/>
  <rect class="cls-1" y="22" width="1" height="1"/>
  <rect class="cls-1" x="20" y="21" width="1" height="1"/>
  <rect class="cls-1" x="19" y="21" width="1" height="1"/>
  <rect class="cls-1" x="18" y="21" width="1" height="1"/>
  <rect class="cls-1" x="17" y="21" width="1" height="1"/>
  <rect class="cls-1" x="16" y="21" width="1" height="1"/>
  <rect class="cls-1" x="15" y="21" width="1" height="1"/>
  <rect class="cls-1" x="14" y="21" width="1" height="1"/>
  <rect class="cls-1" x="13" y="21" width="1" height="1"/>
  <rect class="cls-1" x="12" y="21" width="1" height="1"/>
  <rect class="cls-1" x="11" y="21" width="1" height="1"/>
  <rect class="cls-1" x="10" y="21" width="1" height="1"/>
  <rect class="cls-1" x="9" y="21" width="1" height="1"/>
  <rect class="cls-1" x="8" y="21" width="1" height="1"/>
  <rect class="cls-1" x="4" y="21" width="1" height="1"/>
  <rect class="cls-1" x="3" y="21" width="1" height="1"/>
  <rect class="cls-1" x="2" y="21" width="1" height="1"/>
  <rect class="cls-1" x="1" y="21" width="1" height="1"/>
  <rect class="cls-1" y="21" width="1" height="1"/>
  <rect class="cls-1" x="20" y="20" width="1" height="1"/>
  <rect class="cls-1" x="19" y="20" width="1" height="1"/>
  <rect class="cls-1" x="18" y="20" width="1" height="1"/>
  <rect class="cls-1" x="17" y="20" width="1" height="1"/>
  <rect class="cls-1" x="16" y="20" width="1" height="1"/>
  <rect class="cls-1" x="15" y="20" width="1" height="1"/>
  <rect class="cls-1" x="14" y="20" width="1" height="1"/>
  <rect class="cls-1" x="13" y="20" width="1" height="1"/>
  <rect class="cls-1" x="12" y="20" width="1" height="1"/>
  <rect class="cls-1" x="11" y="20" width="1" height="1"/>
  <rect class="cls-1" x="10" y="20" width="1" height="1"/>
  <rect class="cls-1" x="9" y="20" width="1" height="1"/>
  <rect class="cls-1" x="8" y="20" width="1" height="1"/>
  <rect class="cls-1" x="7" y="20" width="1" height="1"/>
  <rect class="cls-1" x="5" y="20" width="1" height="1"/>
  <rect class="cls-1" x="4" y="20" width="1" height="1"/>
  <rect class="cls-1" x="3" y="20" width="1" height="1"/>
  <rect class="cls-1" x="2" y="20" width="1" height="1"/>
  <rect class="cls-1" x="1" y="20" width="1" height="1"/>
  <rect class="cls-1" x="21" y="19" width="1" height="1"/>
  <rect class="cls-1" x="20" y="19" width="1" height="1"/>
  <rect class="cls-1" x="19" y="19" width="1" height="1"/>
  <rect class="cls-1" x="18" y="19" width="1" height="1"/>
  <rect class="cls-1" x="12" y="19" width="1" height="1"/>
  <rect class="cls-1" x="11" y="19" width="1" height="1"/>
  <rect class="cls-1" x="10" y="19" width="1" height="1"/>
  <rect class="cls-1" x="9" y="19" width="1" height="1"/>
  <rect class="cls-1" x="8" y="19" width="1" height="1"/>
  <rect class="cls-1" x="7" y="19" width="1" height="1"/>
  <rect class="cls-1" x="6" y="19" width="1" height="1"/>
  <rect class="cls-1" x="5" y="19" width="1" height="1"/>
  <rect class="cls-1" x="4" y="19" width="1" height="1"/>
  <rect class="cls-1" x="3" y="19" width="1" height="1"/>
  <rect class="cls-1" x="2" y="19" width="1" height="1"/>
  <rect class="cls-1" x="21" y="18" width="1" height="1"/>
  <rect class="cls-1" x="20" y="18" width="1" height="1"/>
  <rect class="cls-1" x="19" y="18" width="1" height="1"/>
  <rect class="cls-1" x="10" y="18" width="1" height="1"/>
  <rect class="cls-1" x="9" y="18" width="1" height="1"/>
  <rect class="cls-1" x="8" y="18" width="1" height="1"/>
  <rect class="cls-1" x="7" y="18" width="1" height="1"/>
  <rect class="cls-1" x="6" y="18" width="1" height="1"/>
  <rect class="cls-1" x="5" y="18" width="1" height="1"/>
  <rect class="cls-1" x="4" y="18" width="1" height="1"/>
  <rect class="cls-1" x="3" y="18" width="1" height="1"/>
  <rect class="cls-1" x="21" y="17" width="1" height="1"/>
  <rect class="cls-1" x="20" y="17" width="1" height="1"/>
  <rect class="cls-1" x="19" y="17" width="1" height="1"/>
  <rect class="cls-1" x="8" y="17" width="1" height="1"/>
  <rect class="cls-1" x="7" y="17" width="1" height="1"/>
  <rect class="cls-1" x="6" y="17" width="1" height="1"/>
  <rect class="cls-1" x="5" y="17" width="1" height="1"/>
  <rect class="cls-1" x="4" y="17" width="1" height="1"/>
  <rect class="cls-1" x="21" y="16" width="1" height="1"/>
  <rect class="cls-1" x="20" y="16" width="1" height="1"/>
  <rect class="cls-1" x="9" y="16" width="1" height="1"/>
  <rect class="cls-1" x="8" y="16" width="1" height="1"/>
  <rect class="cls-1" x="7" y="16" width="1" height="1"/>
  <rect class="cls-1" x="6" y="16" width="1" height="1"/>
  <rect class="cls-1" x="5" y="16" width="1" height="1"/>
  <rect class="cls-1" x="4" y="16" width="1" height="1"/>
  <rect class="cls-1" x="3" y="16" width="1" height="1"/>
  <rect class="cls-1" x="21" y="15" width="1" height="1"/>
  <rect class="cls-1" x="20" y="15" width="1" height="1"/>
  <rect class="cls-1" x="10" y="15" width="1" height="1"/>
  <rect class="cls-1" x="9" y="15" width="1" height="1"/>
  <rect class="cls-1" x="8" y="15" width="1" height="1"/>
  <rect class="cls-1" x="7" y="15" width="1" height="1"/>
  <rect class="cls-1" x="6" y="15" width="1" height="1"/>
  <rect class="cls-1" x="5" y="15" width="1" height="1"/>
  <rect class="cls-1" x="4" y="15" width="1" height="1"/>
  <rect class="cls-1" x="3" y="15" width="1" height="1"/>
  <rect class="cls-1" x="2" y="15" width="1" height="1"/>
  <rect class="cls-1" x="21" y="14" width="1" height="1"/>
  <rect class="cls-1" x="20" y="14" width="1" height="1"/>
  <rect class="cls-1" x="11" y="14" width="1" height="1"/>
  <rect class="cls-1" x="10" y="14" width="1" height="1"/>
  <rect class="cls-1" x="9" y="14" width="1" height="1"/>
  <rect class="cls-1" x="8" y="14" width="1" height="1"/>
  <rect class="cls-1" x="7" y="14" width="1" height="1"/>
  <rect class="cls-1" x="5" y="14" width="1" height="1"/>
  <rect class="cls-1" x="4" y="14" width="1" height="1"/>
  <rect class="cls-1" x="3" y="14" width="1" height="1"/>
  <rect class="cls-1" x="2" y="14" width="1" height="1"/>
  <rect class="cls-1" x="25" y="13" width="1" height="1"/>
  <rect class="cls-1" x="21" y="13" width="1" height="1"/>
  <rect class="cls-1" x="20" y="13" width="1" height="1"/>
  <rect class="cls-1" x="12" y="13" width="1" height="1"/>
  <rect class="cls-1" x="11" y="13" width="1" height="1"/>
  <rect class="cls-1" x="10" y="13" width="1" height="1"/>
  <rect class="cls-1" x="9" y="13" width="1" height="1"/>
  <rect class="cls-1" x="8" y="13" width="1" height="1"/>
  <rect class="cls-1" x="4" y="13" width="1" height="1"/>
  <rect class="cls-1" x="3" y="13" width="1" height="1"/>
  <rect class="cls-1" x="2" y="13" width="1" height="1"/>
  <rect class="cls-1" x="1" y="13" width="1" height="1"/>
  <rect class="cls-1" x="25" y="12" width="1" height="1"/>
  <rect class="cls-1" x="21" y="12" width="1" height="1"/>
  <rect class="cls-1" x="20" y="12" width="1" height="1"/>
  <rect class="cls-1" x="13" y="12" width="1" height="1"/>
  <rect class="cls-1" x="12" y="12" width="1" height="1"/>
  <rect class="cls-1" x="11" y="12" width="1" height="1"/>
  <rect class="cls-1" x="10" y="12" width="1" height="1"/>
  <rect class="cls-1" x="9" y="12" width="1" height="1"/>
  <rect class="cls-1" x="4" y="12" width="1" height="1"/>
  <rect class="cls-1" x="3" y="12" width="1" height="1"/>
  <rect class="cls-1" x="2" y="12" width="1" height="1"/>
  <rect class="cls-1" x="1" y="12" width="1" height="1"/>
  <rect class="cls-1" x="26" y="11" width="1" height="1"/>
  <rect class="cls-1" x="25" y="11" width="1" height="1"/>
  <rect class="cls-1" x="24" y="11" width="1" height="1"/>
  <rect class="cls-1" x="20" y="11" width="1" height="1"/>
  <rect class="cls-1" x="14" y="11" width="1" height="1"/>
  <rect class="cls-1" x="13" y="11" width="1" height="1"/>
  <rect class="cls-1" x="12" y="11" width="1" height="1"/>
  <rect class="cls-1" x="11" y="11" width="1" height="1"/>
  <rect class="cls-1" x="10" y="11" width="1" height="1"/>
  <rect class="cls-1" x="3" y="11" width="1" height="1"/>
  <rect class="cls-1" x="2" y="11" width="1" height="1"/>
  <rect class="cls-1" x="1" y="11" width="1" height="1"/>
  <rect class="cls-1" y="11" width="1" height="1"/>
  <rect class="cls-1" x="28" y="10" width="1" height="1"/>
  <rect class="cls-1" x="27" y="10" width="1" height="1"/>
  <rect class="cls-1" x="26" y="10" width="1" height="1"/>
  <rect class="cls-1" x="25" y="10" width="1" height="1"/>
  <rect class="cls-1" x="24" y="10" width="1" height="1"/>
  <rect class="cls-1" x="23" y="10" width="1" height="1"/>
  <rect class="cls-1" x="22" y="10" width="1" height="1"/>
  <rect class="cls-1" x="15" y="10" width="1" height="1"/>
  <rect class="cls-1" x="14" y="10" width="1" height="1"/>
  <rect class="cls-1" x="13" y="10" width="1" height="1"/>
  <rect class="cls-1" x="12" y="10" width="1" height="1"/>
  <rect class="cls-1" x="11" y="10" width="1" height="1"/>
  <rect class="cls-1" x="3" y="10" width="1" height="1"/>
  <rect class="cls-1" x="2" y="10" width="1" height="1"/>
  <rect class="cls-1" x="1" y="10" width="1" height="1"/>
  <rect class="cls-1" y="10" width="1" height="1"/>
  <rect class="cls-1" x="26" y="9" width="1" height="1"/>
  <rect class="cls-1" x="25" y="9" width="1" height="1"/>
  <rect class="cls-1" x="24" y="9" width="1" height="1"/>
  <rect class="cls-1" x="16" y="9" width="1" height="1"/>
  <rect class="cls-1" x="15" y="9" width="1" height="1"/>
  <rect class="cls-1" x="14" y="9" width="1" height="1"/>
  <rect class="cls-1" x="13" y="9" width="1" height="1"/>
  <rect class="cls-1" x="12" y="9" width="1" height="1"/>
  <rect class="cls-1" x="3" y="9" width="1" height="1"/>
  <rect class="cls-1" x="2" y="9" width="1" height="1"/>
  <rect class="cls-1" x="1" y="9" width="1" height="1"/>
  <rect class="cls-1" y="9" width="1" height="1"/>
  <rect class="cls-1" x="25" y="8" width="1" height="1"/>
  <rect class="cls-1" x="16" y="8" width="1" height="1"/>
  <rect class="cls-1" x="15" y="8" width="1" height="1"/>
  <rect class="cls-1" x="14" y="8" width="1" height="1"/>
  <rect class="cls-1" x="13" y="8" width="1" height="1"/>
  <rect class="cls-1" x="3" y="8" width="1" height="1"/>
  <rect class="cls-1" x="2" y="8" width="1" height="1"/>
  <rect class="cls-1" x="1" y="8" width="1" height="1"/>
  <rect class="cls-1" y="8" width="1" height="1"/>
  <rect class="cls-1" x="25" y="7" width="1" height="1"/>
  <rect class="cls-1" x="15" y="7" width="1" height="1"/>
  <rect class="cls-1" x="14" y="7" width="1" height="1"/>
  <rect class="cls-1" x="4" y="7" width="1" height="1"/>
  <rect class="cls-1" x="3" y="7" width="1" height="1"/>
  <rect class="cls-1" x="2" y="7" width="1" height="1"/>
  <rect class="cls-1" x="1" y="7" width="1" height="1"/>
  <rect class="cls-1" y="7" width="1" height="1"/>
  <rect class="cls-1" x="23" y="6" width="1" height="1"/>
  <rect class="cls-1" x="22" y="6" width="1" height="1"/>
  <rect class="cls-1" x="21" y="6" width="1" height="1"/>
  <rect class="cls-1" x="19" y="6" width="1" height="1"/>
  <rect class="cls-1" x="18" y="6" width="1" height="1"/>
  <rect class="cls-1" x="17" y="6" width="1" height="1"/>
  <rect class="cls-1" x="5" y="6" width="1" height="1"/>
  <rect class="cls-1" x="4" y="6" width="1" height="1"/>
  <rect class="cls-1" x="3" y="6" width="1" height="1"/>
  <rect class="cls-1" x="2" y="6" width="1" height="1"/>
  <rect class="cls-1" x="1" y="6" width="1" height="1"/>
  <rect class="cls-1" y="6" width="1" height="1"/>
  <rect class="cls-1" x="23" y="5" width="1" height="1"/>
  <rect class="cls-1" x="22" y="5" width="1" height="1"/>
  <rect class="cls-1" x="21" y="5" width="1" height="1"/>
  <rect class="cls-1" x="20" y="5" width="1" height="1"/>
  <rect class="cls-1" x="19" y="5" width="1" height="1"/>
  <rect class="cls-1" x="18" y="5" width="1" height="1"/>
  <rect class="cls-1" x="17" y="5" width="1" height="1"/>
  <rect class="cls-1" x="11" y="5" width="1" height="1"/>
  <rect class="cls-1" x="10" y="5" width="1" height="1"/>
  <rect class="cls-1" x="9" y="5" width="1" height="1"/>
  <rect class="cls-1" x="8" y="5" width="1" height="1"/>
  <rect class="cls-1" x="7" y="5" width="1" height="1"/>
  <rect class="cls-1" x="6" y="5" width="1" height="1"/>
  <rect class="cls-1" x="5" y="5" width="1" height="1"/>
  <rect class="cls-1" x="4" y="5" width="1" height="1"/>
  <rect class="cls-1" x="3" y="5" width="1" height="1"/>
  <rect class="cls-1" x="2" y="5" width="1" height="1"/>
  <rect class="cls-1" x="1" y="5" width="1" height="1"/>
  <rect class="cls-1" y="5" width="1" height="1"/>
  <rect class="cls-1" x="23" y="4" width="1" height="1"/>
  <rect class="cls-1" x="22" y="4" width="1" height="1"/>
  <rect class="cls-1" x="21" y="4" width="1" height="1"/>
  <rect class="cls-1" x="20" y="4" width="1" height="1"/>
  <rect class="cls-1" x="19" y="4" width="1" height="1"/>
  <rect class="cls-1" x="18" y="4" width="1" height="1"/>
  <rect class="cls-1" x="17" y="4" width="1" height="1"/>
  <rect class="cls-1" x="12" y="4" width="1" height="1"/>
  <rect class="cls-1" x="11" y="4" width="1" height="1"/>
  <rect class="cls-1" x="10" y="4" width="1" height="1"/>
  <rect class="cls-1" x="9" y="4" width="1" height="1"/>
  <rect class="cls-1" x="8" y="4" width="1" height="1"/>
  <rect class="cls-1" x="7" y="4" width="1" height="1"/>
  <rect class="cls-1" x="6" y="4" width="1" height="1"/>
  <rect class="cls-1" x="5" y="4" width="1" height="1"/>
  <rect class="cls-1" x="4" y="4" width="1" height="1"/>
  <rect class="cls-1" x="3" y="4" width="1" height="1"/>
  <rect class="cls-1" x="2" y="4" width="1" height="1"/>
  <rect class="cls-1" x="1" y="4" width="1" height="1"/>
  <rect class="cls-1" y="4" width="1" height="1"/>
  <rect class="cls-1" x="22" y="3" width="1" height="1"/>
  <rect class="cls-1" x="21" y="3" width="1" height="1"/>
  <rect class="cls-1" x="20" y="3" width="1" height="1"/>
  <rect class="cls-1" x="19" y="3" width="1" height="1"/>
  <rect class="cls-1" x="18" y="3" width="1" height="1"/>
  <rect class="cls-1" x="11" y="3" width="1" height="1"/>
  <rect class="cls-1" x="10" y="3" width="1" height="1"/>
  <rect class="cls-1" x="9" y="3" width="1" height="1"/>
  <rect class="cls-1" x="8" y="3" width="1" height="1"/>
  <rect class="cls-1" x="7" y="3" width="1" height="1"/>
  <rect class="cls-1" x="6" y="3" width="1" height="1"/>
  <rect class="cls-1" x="5" y="3" width="1" height="1"/>
  <rect class="cls-1" x="4" y="3" width="1" height="1"/>
  <rect class="cls-1" x="3" y="3" width="1" height="1"/>
  <rect class="cls-1" x="2" y="3" width="1" height="1"/>
  <rect class="cls-1" x="1" y="3" width="1" height="1"/>
  <rect class="cls-1" x="23" y="2" width="1" height="1"/>
  <rect class="cls-1" x="22" y="2" width="1" height="1"/>
  <rect class="cls-1" x="21" y="2" width="1" height="1"/>
  <rect class="cls-1" x="20" y="2" width="1" height="1"/>
  <rect class="cls-1" x="19" y="2" width="1" height="1"/>
  <rect class="cls-1" x="18" y="2" width="1" height="1"/>
  <rect class="cls-1" x="17" y="2" width="1" height="1"/>
  <rect class="cls-1" x="10" y="2" width="1" height="1"/>
  <rect class="cls-1" x="9" y="2" width="1" height="1"/>
  <rect class="cls-1" x="8" y="2" width="1" height="1"/>
  <rect class="cls-1" x="7" y="2" width="1" height="1"/>
  <rect class="cls-1" x="6" y="2" width="1" height="1"/>
  <rect class="cls-1" x="5" y="2" width="1" height="1"/>
  <rect class="cls-1" x="4" y="2" width="1" height="1"/>
  <rect class="cls-1" x="3" y="2" width="1" height="1"/>
  <rect class="cls-1" x="2" y="2" width="1" height="1"/>
  <rect class="cls-1" x="23" y="1" width="1" height="1"/>
  <rect class="cls-1" x="22" y="1" width="1" height="1"/>
  <rect class="cls-1" x="21" y="1" width="1" height="1"/>
  <rect class="cls-1" x="20" y="1" width="1" height="1"/>
  <rect class="cls-1" x="19" y="1" width="1" height="1"/>
  <rect class="cls-1" x="18" y="1" width="1" height="1"/>
  <rect class="cls-1" x="17" y="1" width="1" height="1"/>
  <rect class="cls-1" x="8" y="1" width="1" height="1"/>
  <rect class="cls-1" x="7" y="1" width="1" height="1"/>
  <rect class="cls-1" x="6" y="1" width="1" height="1"/>
  <rect class="cls-1" x="5" y="1" width="1" height="1"/>
  <rect class="cls-1" x="4" y="1" width="1" height="1"/>
  <rect class="cls-1" x="23" width="1" height="1"/>
  <rect class="cls-1" x="22" width="1" height="1"/>
  <rect class="cls-1" x="21" width="1" height="1"/>
  <rect class="cls-1" x="19" width="1" height="1"/>
  <rect class="cls-1" x="18" width="1" height="1"/>
  <rect class="cls-1" x="17" width="1" height="1"/>
</svg>